<svg width="601" height="543" viewBox="0 0 601 543" fill="none" xmlns="http://www.w3.org/2000/svg">
<path d="M543.938 0C301.531 0 0 238.201 0 435.618C0 537.577 82.4619 589 191.374 589C271.346 589 368.122 561.22 461.476 507.728V113.781C436.581 154.269 319.579 317.404 225.603 404.291C177.682 448.621 139.719 467.831 107.045 467.831C70.326 467.831 52.9002 444.188 52.9002 409.02C52.9002 249.431 335.760 41.9659 523.089 41.9659C600.260 41.9659 650.049 74.4747 650.049 137.719C650.049 195.644 608.662 268.345 538.025 335.431V457.487C661.251 364.985 735 247.067 735 151.905C735 51.7185 652.849 0 543.938 0Z" fill="white" fill-opacity="0.1"/>
</svg>
